<svg width="860" height="982" viewBox="0 0 860 982" fill="none" xmlns="http://www.w3.org/2000/svg">
<g opacity="0.8" filter="url(#filter0_f_2_14)">
<path d="M206.787 452.823C211.536 473.556 226.342 519.817 250.962 530.176C253.168 509.428 277.553 522.373 293.439 523.899C313.504 525.826 339.423 537.256 358.085 544.773C375.71 551.872 381.339 576.724 388.345 591.805C405.716 629.203 432.621 665.368 469.77 686.926C504.113 706.855 561.929 703.557 598.099 689.832C651.068 669.732 680.354 615.375 707.859 571.46C730.686 535.011 756.123 499.653 781.169 464.581C793.967 446.661 811.299 428.889 818.581 407.905C827.937 380.946 820.448 347.868 814.377 321.054L814.18 320.182C805.175 280.397 791.292 241.361 767.965 207.094C730.389 151.894 663.894 78.6105 587.233 95.4589C550.561 103.518 517.109 122.704 483.662 138.527C452.596 153.225 421.485 167.406 391.508 184.106C332.682 216.878 267.346 252.752 226.593 306.707C195.495 347.879 195.742 404.6 206.787 452.823Z" fill="#FF00D6" fill-opacity="0.5"/>
</g>
<g opacity="0.8" filter="url(#filter1_f_2_14)">
<path d="M653.002 378.476C652.715 428.02 680.1 467.703 725.378 498.128C718.89 509.046 710.323 517.517 699.123 526.846C666.959 553.639 648.522 587.955 654.764 625.025C660.452 658.81 684.872 685.445 726.348 695.709C777.049 708.255 839.85 694.77 891.615 693.115C952.125 691.18 1020.99 697.84 1075.14 671.196C1116.25 650.967 1143.6 622.867 1165.94 588.84C1190.38 551.605 1200.45 522.365 1175.71 482.491C1147.05 436.313 1103.06 401.332 1091.47 348.387C1083.39 311.463 1093 274.537 1072.58 239.184C1047.68 196.098 990.67 163.08 944.782 135.688C938.889 132.17 896.851 103.296 886.49 110.008C876.031 116.785 872.067 138.827 868.394 147.749C853.369 184.254 833.418 219.869 809.622 253.191C792.294 277.455 770.237 306.177 735.636 315.963C716.424 321.397 695.502 318.777 677.664 328.154C656.424 339.32 653.112 359.494 653.002 378.476Z" fill="#8000FF" fill-opacity="0.5"/>
</g>
<g opacity="0.8" filter="url(#filter2_f_2_14)">
<path d="M426.163 685.689C410.222 723.923 442.713 761.557 478.624 775.213C485.9 782.188 497.673 791.472 505.22 791.934C519.286 792.797 524.275 797.613 535.747 804.315C546.465 810.577 551.625 831.618 556.881 842.609C563.971 857.434 572.511 872.703 585.06 882.631C604.713 898.181 622.843 898.181 646.556 898.18H647.157C678.785 898.18 711.132 900.364 742.652 897.604C785.508 893.85 821.359 861.822 856.932 838.578L858.613 837.48C880.131 823.423 901.976 809.152 921.638 792.078C932.629 782.534 945.709 773.653 943.816 756.519C940.93 730.409 926.056 706.135 913.028 684.969C892.231 651.181 869.169 619.776 853.279 582.611C841.131 554.198 831.095 526.408 813.229 501.415C792.588 472.542 765.676 449.505 736.911 431.161C707.785 412.586 669.164 390.835 634.372 398.625C610.545 403.961 605.742 431.777 601.497 454.195C591.95 504.617 565.029 537.976 531.573 572.965C507.079 598.582 480.967 622.175 456.038 647.251C444.974 658.38 432.583 670.293 426.163 685.689Z" fill="#FAFF00" fill-opacity="0.5"/>
</g>
<defs>
<filter id="filter0_f_2_14" x="0" y="-107" width="1023" height="1008" filterUnits="userSpaceOnUse" color-interpolation-filters="sRGB">
<feFlood flood-opacity="0" result="BackgroundImageFix"/>
<feBlend mode="normal" in="SourceGraphic" in2="BackgroundImageFix" result="shape"/>
<feGaussianBlur stdDeviation="100" result="effect1_foregroundBlur_2_14"/>
</filter>
<filter id="filter1_f_2_14" x="453" y="-91" width="937" height="992" filterUnits="userSpaceOnUse" color-interpolation-filters="sRGB">
<feFlood flood-opacity="0" result="BackgroundImageFix"/>
<feBlend mode="normal" in="SourceGraphic" in2="BackgroundImageFix" result="shape"/>
<feGaussianBlur stdDeviation="100" result="effect1_foregroundBlur_2_14"/>
</filter>
<filter id="filter2_f_2_14" x="222" y="197" width="922" height="902" filterUnits="userSpaceOnUse" color-interpolation-filters="sRGB">
<feFlood flood-opacity="0" result="BackgroundImageFix"/>
<feBlend mode="normal" in="SourceGraphic" in2="BackgroundImageFix" result="shape"/>
<feGaussianBlur stdDeviation="100" result="effect1_foregroundBlur_2_14"/>
</filter>
</defs>
</svg>
