<svg width="73" height="85" viewBox="0 0 73 85" fill="none" xmlns="http://www.w3.org/2000/svg">
<g clip-path="url(#clip0_60_163)">
<path d="M70.7483 65.7707C69.6491 64.9239 68.3549 64.2721 66.856 63.8249C65.3619 63.3777 63.8107 63.1018 62.2167 63.0019C60.6179 62.902 59.3237 62.8497 58.3245 62.8497C54.1324 62.8497 49.9166 63.2255 45.677 63.9724C41.4374 64.7241 37.2692 65.647 33.1771 66.7412C33.5149 66.2369 34.0479 65.4567 34.7711 64.4006C35.166 63.8249 35.6228 63.1684 36.1367 62.4263C36.2985 62.1931 36.4651 61.9458 36.6411 61.6936C36.6839 61.6318 36.7268 61.5652 36.7696 61.5033C37.3929 60.6042 38.0495 59.6622 38.7443 58.6679C39.2391 57.9591 39.753 57.2264 40.2859 56.47C40.5143 56.1418 40.7475 55.8088 40.9854 55.471C41.4612 54.7859 41.9561 54.0866 42.4652 53.3682C42.6603 53.0923 42.8601 52.8116 43.06 52.5262C43.3265 52.1456 43.5977 51.765 43.8689 51.3796C43.9688 51.2322 44.0735 51.0847 44.1782 50.9372C45.8578 48.5395 47.6041 46.0371 49.4123 43.4253C49.574 43.1922 49.7358 42.9591 49.8976 42.7212C50.1355 42.3739 50.3734 42.0266 50.6161 41.6746C50.835 41.3559 51.0586 41.0371 51.2727 40.7184C52.6431 38.7298 53.9516 36.8126 55.2126 34.9619C55.579 34.4244 55.9358 33.8915 56.2927 33.3682C56.4783 33.0923 56.6638 32.8164 56.8494 32.5404C57.2206 31.9886 57.5917 31.4462 57.9533 30.9039C58.8669 29.548 59.7186 28.2588 60.5133 27.0504C60.5846 26.941 60.656 26.8363 60.7226 26.7317C61.3126 25.8325 61.8741 24.9715 62.4023 24.1579C62.8353 23.4824 63.2493 22.8354 63.6394 22.2217C65.1859 19.7764 66.0566 18.2065 66.2565 17.5071C66.4563 16.7127 66.6324 15.9895 66.7799 15.3378C66.9321 14.6908 67.0083 13.9677 67.0083 13.1684C67.0083 10.5756 66.109 8.43007 64.3103 6.73168C62.5165 5.03806 60.3467 3.69172 57.8011 2.69267C55.2554 1.69838 52.6384 0.999049 49.9452 0.599429C47.2473 0.19981 44.9538 0 43.06 0C41.3613 0 39.1154 0.147479 36.3223 0.447193C33.5292 0.746908 30.5839 1.22265 27.491 1.86965C24.3981 2.52141 21.2529 3.31589 18.0601 4.26261C14.8673 5.21408 11.9743 6.30828 9.38108 7.55471C8.31523 8.06851 7.33027 8.60609 6.43572 9.16746C5.14623 9.97621 4.0328 10.8325 3.09543 11.746C1.49665 13.2921 0.697266 14.9619 0.697266 16.7602C0.697266 18.1589 1.17309 19.4053 2.11998 20.4995C3.06688 21.5985 4.21837 22.5452 5.56496 23.3444C6.91154 24.1437 8.33426 24.7669 9.82835 25.2141C10.8371 25.5186 11.7792 25.7184 12.65 25.8135C13.0735 25.8658 13.4827 25.8896 13.8729 25.8896C15.367 25.8896 17.1894 25.7136 19.3353 25.3663C21.4813 25.0143 23.6987 24.5909 25.9969 24.0913C28.2904 23.5966 30.5077 23.0685 32.6537 22.5214C34.7997 21.9743 36.5697 21.5509 37.9687 21.2512C37.8212 21.4558 37.6689 21.6651 37.5119 21.8792C36.9694 22.607 36.3556 23.4015 35.6704 24.2674C35.3469 24.6765 35.0043 25.1047 34.6474 25.5471C34.0145 26.3321 33.3246 27.1694 32.5823 28.059C31.9257 28.844 31.2595 29.648 30.5743 30.4757C30.5553 30.4995 30.5315 30.5281 30.5125 30.5519C29.8796 31.3225 29.2373 32.117 28.5806 32.921C27.5814 34.1627 26.5584 35.452 25.502 36.784C25.4164 36.8934 25.3307 37.0029 25.2451 37.1123C24.6836 37.8211 24.1221 38.5395 23.5559 39.2626C23.5083 39.3245 23.456 39.3911 23.4084 39.4529C21.8144 41.4986 20.1966 43.5871 18.5645 45.7279C18.436 45.8944 18.3123 46.0609 18.1838 46.2274H18.1791C17.8936 46.6032 17.6033 46.9838 17.3131 47.3644C17.1513 47.5737 16.9943 47.7831 16.842 47.9924C15.5383 49.7146 14.2964 51.4225 13.1163 53.1113C12.669 53.7583 12.2265 54.4006 11.7935 55.0381C11.5937 55.3283 11.3986 55.6185 11.2082 55.9039C10.7895 56.5271 10.3803 57.1456 9.98062 57.764C8.84815 59.51 7.82513 61.1941 6.90679 62.8069C6.84017 62.921 6.77831 63.0352 6.7117 63.1494C6.34055 63.8107 5.98368 64.4624 5.65061 65.0999C5.2747 65.8135 4.92259 66.5081 4.58952 67.1932C3.19535 70.0856 2.49589 72.5309 2.49589 74.5243C2.49589 77.1218 3.59504 79.1389 5.7886 80.5852C7.98215 82.0314 10.5802 83.078 13.5731 83.7298C16.566 84.3768 19.5828 84.7479 22.6281 84.8525C25.6686 84.9477 28.0382 85 29.7369 85C31.4356 85 33.6767 84.8763 36.4746 84.6242C39.2677 84.3768 42.2368 84.001 45.3773 83.5014C48.5225 83.0067 51.7153 82.3549 54.9556 81.5604C58.2007 80.7612 61.0938 79.7621 63.6394 78.5633C66.1851 77.3692 68.2787 76.0228 69.9251 74.5243C71.5714 73.0257 72.3946 71.2845 72.3946 69.2864C72.3946 67.7926 71.8474 66.6175 70.7483 65.7707Z" fill="#0082D1"/>
<path d="M62.4023 24.1579C61.8741 24.9714 61.3126 25.8325 60.7226 26.7317C60.656 26.8363 60.5846 26.941 60.5132 27.0504C59.7186 28.2588 58.8669 29.548 57.9533 30.9039C57.5917 31.4462 57.2205 31.9886 56.8494 32.5404C53.7375 32.2883 50.6351 32.0361 47.5327 31.7888C42.6555 31.3939 37.7783 30.999 32.9059 30.6089C32.254 30.5566 31.4118 30.5661 30.5125 30.5518C30.5315 30.5281 30.5553 30.4995 30.5743 30.4757C31.2595 29.6479 31.9257 28.8439 32.5823 28.059C33.3246 27.1694 34.0145 26.3321 34.6474 25.5471C35.0042 25.1047 35.3468 24.6765 35.6704 24.2674C36.3556 23.4015 36.9694 22.607 37.5118 21.8792C40.9854 21.6936 44.2067 21.803 45.7531 21.8268C50.8016 21.9125 55.8454 22.5404 60.7607 23.7203C61.3079 23.8535 61.8598 23.9914 62.4023 24.1579Z" fill="#001A42"/>
<path d="M51.2727 40.7183C51.0586 41.0371 50.8349 41.3558 50.616 41.6746C50.3734 42.0266 50.1355 42.3739 49.8975 42.7212C49.7358 42.9591 49.574 43.1922 49.4122 43.4253C47.6041 46.0371 45.8578 48.5395 44.1781 50.9372C44.0734 51.0847 43.9688 51.2321 43.8688 51.3796C43.5976 51.2084 43.3264 51.0371 43.0552 50.8706C35.6038 46.3416 26.9247 44.529 18.5645 45.7279C20.1965 43.587 21.8143 41.4986 23.4084 39.4529C23.4559 39.391 23.5083 39.3244 23.5559 39.2626C24.1221 38.5395 24.6836 37.8211 25.245 37.1123C25.3307 37.0028 25.4163 36.8934 25.502 36.784C33.6957 36.8506 41.9655 37.5071 49.85 40.195C50.321 40.3568 50.8016 40.528 51.2727 40.7183Z" fill="#001A42"/>
<path d="M40.2859 56.47C39.753 57.2265 39.2391 57.9591 38.7442 58.6679C38.0495 59.6622 37.3929 60.6042 36.7695 61.5033C36.7267 61.5652 36.6839 61.6318 36.6411 61.6936C36.465 61.9458 36.2985 62.1932 36.1367 62.4263C36.1034 62.4215 36.0701 62.4215 36.0368 62.4167C26.2728 61.5128 16.4042 61.7602 6.71167 63.1494C6.77829 63.0352 6.84014 62.921 6.90676 62.8069C7.8251 61.1941 8.84812 59.51 9.98059 57.764C10.3803 57.1456 10.7895 56.5271 11.2082 55.9039C11.3985 55.6185 11.5936 55.3283 11.7935 55.0381C12.2265 54.4006 12.669 53.7583 13.1163 53.1113C13.4208 53.0828 13.7206 53.059 14.0203 53.0352C16.9419 52.8306 19.8778 52.8259 22.7993 53.0114C27.9335 53.3349 33.0248 54.2436 37.921 55.7136C38.7157 55.9515 39.5055 56.2036 40.2859 56.47Z" fill="#001A42"/>
</g>
<defs>
<clipPath id="clip0_60_163">
<rect width="71.6973" height="85" fill="white" transform="translate(0.697266)"/>
</clipPath>
</defs>
</svg>
