<svg width="228" height="44" viewBox="0 0 228 44" fill="none" xmlns="http://www.w3.org/2000/svg">
<g clip-path="url(#clip0_60_169)">
<path d="M29.9297 37.3461C29.8801 38.1515 29.4898 38.833 28.7463 39.3968C28.0029 39.9606 27.0798 40.45 25.9708 40.8651C24.8619 41.2802 23.598 41.6086 22.1979 41.8502C20.7978 42.0918 19.4162 42.2715 18.0656 42.3892C16.715 42.5069 15.4388 42.5812 14.2431 42.6122C13.0474 42.6432 12.0871 42.6308 11.3623 42.5874C10.6374 42.5441 9.6276 42.4635 8.33278 42.3458C7.03796 42.2281 5.76173 41.9989 4.49788 41.6581C3.23404 41.3174 2.15605 40.8279 1.25773 40.1898C0.35941 39.5517 -0.0556763 38.7091 0.00627684 37.6621C0.0558394 36.8567 0.408972 35.8902 1.07807 34.7564C1.74097 33.6226 2.58353 32.4021 3.60576 31.0887C4.62179 29.7753 5.74933 28.4433 6.9884 27.0803C8.22127 25.7235 9.43555 24.41 10.6189 23.1462C11.8022 21.8823 12.9173 20.7299 13.9643 19.6829C15.0113 18.6359 15.8291 17.7623 16.4301 17.0746C15.8291 17.1614 15.0609 17.2853 14.1316 17.4525C13.2023 17.6198 12.242 17.7747 11.257 17.9172C10.2657 18.0597 9.31164 18.1712 8.38854 18.258C7.46544 18.3447 6.68483 18.3695 6.04671 18.3261C5.53869 18.2951 4.96873 18.1712 4.343 17.9482C3.71727 17.7251 3.12252 17.4402 2.57114 17.0808C2.01356 16.7215 1.54891 16.3126 1.171 15.8417C0.793082 15.3771 0.619613 14.8567 0.656785 14.2929C0.700152 13.568 1.08426 12.9175 1.79672 12.3289C2.51538 11.7465 3.44468 11.2385 4.57842 10.7986C5.71216 10.365 6.97601 9.99324 8.35756 9.69586C9.73912 9.39847 11.1021 9.15685 12.4341 8.97099C13.7661 8.79132 15.0361 8.67361 16.2318 8.62405C17.4275 8.57448 18.3878 8.57448 19.1126 8.61785C19.918 8.66741 20.8969 8.80371 22.0306 9.03914C23.1706 9.26837 24.2671 9.62151 25.3265 10.0862C26.3859 10.557 27.2781 11.1518 28.0029 11.8828C28.7278 12.6139 29.0561 13.4999 28.9942 14.5469C28.9756 14.869 28.926 15.1602 28.8455 15.4142C28.7649 15.6745 28.672 15.9594 28.5667 16.2754C28.4614 16.5542 28.0525 17.1614 27.3338 18.1093C26.6152 19.0572 25.7354 20.1723 24.7008 21.4672C23.66 22.7558 22.5324 24.1436 21.312 25.6243C20.0915 27.105 18.9268 28.499 17.824 29.8062C16.7212 31.1135 15.7548 32.2658 14.9246 33.2695C14.0944 34.2732 13.543 34.9423 13.2643 35.2892C15.0361 34.9547 16.8328 34.6883 18.6604 34.4962C20.488 34.3041 22.2908 34.2608 24.0813 34.3661C24.5087 34.3909 25.0601 34.4466 25.7354 34.5272C26.4107 34.6077 27.0674 34.7564 27.6931 34.9794C28.3189 35.2025 28.8579 35.4937 29.3039 35.8654C29.75 36.2371 29.9544 36.7204 29.9173 37.3275L29.9297 37.3461Z" fill="#0082D1"/>
<path d="M58.3351 32.3464C58.3351 33.5793 57.8829 34.7874 56.9721 35.9645C56.0614 37.1479 54.9215 38.1949 53.5523 39.1242C52.1832 40.0473 50.7149 40.797 49.1537 41.3546C47.5924 41.9184 46.1551 42.1972 44.8479 42.1972C42.6114 42.1972 40.6165 41.7139 38.8632 40.7536C37.11 39.7933 35.6417 38.5666 34.4646 37.0797C33.2813 35.5928 32.3829 33.951 31.7758 32.1544C31.1625 30.3577 30.8589 28.6044 30.8589 26.9006C30.8589 25.0854 31.1563 23.1462 31.7448 21.0769C32.3334 19.0076 33.2317 17.0994 34.4336 15.3585C35.6355 13.6176 37.1533 12.1617 38.9933 11.0031C40.8271 9.83838 43.0141 9.26221 45.548 9.26221C46.9853 9.26221 48.3545 9.47285 49.6617 9.88795C50.9689 10.303 52.1088 10.8978 53.0815 11.6598C54.0541 12.4219 54.8348 13.3326 55.4233 14.3796C56.0119 15.4329 56.3092 16.61 56.3092 17.9172C56.3092 19.621 55.888 21.2194 55.0454 22.7063C54.2028 24.1932 53.0815 25.4819 51.6875 26.5723C50.2936 27.6627 48.689 28.5424 46.8738 29.2115C45.0586 29.8806 43.2 30.2523 41.3042 30.3267C41.4715 31.3799 41.9671 32.142 42.7911 32.6128C43.615 33.0837 44.5939 33.3191 45.7338 33.3191C46.5764 33.3191 47.4004 33.1394 48.2058 32.7739C49.005 32.4146 49.7856 32.0057 50.5476 31.5472C51.3096 31.0949 52.0593 30.686 52.7965 30.3205C53.5337 29.9612 54.2834 29.7753 55.0454 29.7753C55.888 29.7753 56.65 30.0107 57.3253 30.4816C58.0006 30.9524 58.3413 31.572 58.3413 32.334L58.3351 32.3464ZM48.0819 19.0014C48.0819 18.5306 47.9332 18.0411 47.6358 17.5331C47.3384 17.0251 46.8738 16.7711 46.2419 16.7711C45.3126 16.7711 44.5319 16.9817 43.9 17.3968C43.2681 17.8119 42.7415 18.3385 42.3202 18.9767C41.8989 19.6148 41.5706 20.2901 41.3414 21.0211C41.1121 21.746 40.9696 22.4213 40.9325 23.0347C41.521 22.9231 42.2273 22.7807 43.0513 22.601C43.8752 22.4213 44.6559 22.1735 45.3931 21.8637C46.1303 21.554 46.7623 21.1636 47.2951 20.6928C47.8217 20.2219 48.0881 19.6582 48.0881 19.0076L48.0819 19.0014Z" fill="#0082D1"/>
<path d="M90.8171 24.0692C90.8171 25.1225 90.7242 26.312 90.5321 27.6378C90.3401 28.9636 90.0489 30.3142 89.6462 31.6958C89.2435 33.0774 88.7169 34.4156 88.0664 35.7229C87.4097 37.0301 86.6105 38.201 85.6626 39.2357C84.7147 40.2703 83.612 41.0943 82.3729 41.7139C81.1277 42.3334 79.6841 42.637 78.0362 42.637C76.3077 42.637 74.7341 42.29 73.3216 41.6023C71.909 40.9146 70.6947 39.9667 69.6787 38.771C69.5548 39.7499 69.0902 40.6111 68.2848 41.3545C67.4856 42.098 66.4695 42.4697 65.2429 42.4697C64.5242 42.4697 63.9233 42.1599 63.44 41.5466C62.9568 40.927 62.5665 40.1402 62.2691 39.1799C61.9717 38.2196 61.7549 37.154 61.6062 35.9955C61.4575 34.8307 61.3646 33.7094 61.3212 32.619C61.2779 31.5286 61.2593 30.5497 61.2593 29.6761V27.8237C61.2593 26.5908 61.2717 25.3579 61.2903 24.1188C61.3088 22.8859 61.346 21.6344 61.3832 20.3644C61.3832 19.7448 61.3708 18.8217 61.3522 17.5888C61.3274 16.3559 61.3398 14.9867 61.3832 13.475C61.4266 11.9696 61.5195 10.4269 61.6682 8.84706C61.8169 7.26722 62.0771 5.82368 62.4612 4.51644C62.8453 3.20921 63.3657 2.1374 64.041 1.30101C64.7163 0.464628 65.5836 0.030947 66.6368 -0.00622559C67.4794 -0.00622559 68.198 0.247787 68.7866 0.755813C69.3751 1.26384 69.8708 1.93295 70.2735 2.76933C70.6762 3.60572 70.9921 4.54123 71.2213 5.57586C71.4506 6.6105 71.624 7.64514 71.7294 8.67978C71.8347 9.71442 71.8966 10.6933 71.9214 11.6226C71.94 12.5457 71.9524 13.3016 71.9524 13.8839C71.9524 13.9955 71.94 14.2371 71.9214 14.6212C71.8966 15.0053 71.8904 15.408 71.8904 15.8479V17.5888C72.2684 16.9011 72.8197 16.2258 73.5384 15.5753C74.257 14.9248 75.0562 14.3424 75.9422 13.8344C76.8281 13.3264 77.7574 12.9113 78.7301 12.5829C79.7027 12.2545 80.632 12.0935 81.518 12.0935C83.2898 12.0935 84.7767 12.4838 85.9786 13.2644C87.1805 14.045 88.1407 15.0363 88.8594 16.232C89.5781 17.4277 90.0861 18.7288 90.3773 20.1228C90.6746 21.5229 90.8233 22.8364 90.8233 24.0692H90.8171ZM81.5056 25.6986C81.5056 25.265 81.4746 24.7941 81.4126 24.2799C81.3507 23.7719 81.202 23.301 80.9666 22.8611C80.7374 22.4275 80.4152 22.0619 80.0187 21.7707C79.616 21.4796 79.1018 21.3371 78.4699 21.3371C77.7946 21.3371 77.1317 21.4672 76.475 21.7212C75.8183 21.9752 75.1987 22.3035 74.6102 22.7001C74.0216 23.1028 73.4702 23.524 72.9622 23.9825C72.4542 24.4348 72.0143 24.8808 71.6302 25.3145L70.9983 30.1594C71.6736 30.9957 72.4976 31.6587 73.4702 32.1481C74.4429 32.6375 75.5395 32.8854 76.76 32.8854C77.6893 32.8854 78.4575 32.6313 79.0708 32.1233C79.6841 31.6153 80.1674 30.9896 80.5267 30.2461C80.886 29.5026 81.1401 28.7158 81.2887 27.8794C81.4374 27.0431 81.5118 26.3182 81.5118 25.6986H81.5056Z" fill="#0082D1"/>
<path d="M116.645 21.6716C116.057 21.7088 115.549 21.6654 115.128 21.5353C114.706 21.4114 114.285 21.2751 113.864 21.1264C113.486 20.9839 113.102 20.8476 112.724 20.7175C112.346 20.5936 111.925 20.5441 111.46 20.5812C110.617 20.6184 109.868 20.8166 109.211 21.1822C108.554 21.5477 107.966 22 107.439 22.5452C106.913 23.0904 106.46 23.6975 106.076 24.3666C105.698 25.0357 105.401 25.6987 105.19 26.3554C105.066 26.7891 104.967 27.452 104.905 28.3441C104.843 29.2362 104.812 30.1842 104.812 31.2002C104.769 32.2534 104.75 33.2509 104.75 34.1926C104.75 35.1343 104.707 35.8778 104.626 36.423C104.583 37.0053 104.478 37.6868 104.31 38.4674C104.143 39.2481 103.877 39.9853 103.517 40.673C103.158 41.3607 102.681 41.9431 102.093 42.4139C101.504 42.8848 100.742 43.1202 99.8127 43.1202C99.094 43.1202 98.4745 42.9406 97.9479 42.575C97.4213 42.2095 96.9752 41.7324 96.6159 41.1315C96.2566 40.5305 95.9592 39.8366 95.73 39.0374C95.5007 38.2382 95.3211 37.4204 95.191 36.584C95.0671 35.7105 94.968 34.8431 94.906 33.9696C94.844 33.096 94.8007 32.272 94.7821 31.4914C94.7573 30.7108 94.7573 29.9921 94.7821 29.3416C94.8007 28.691 94.8131 28.1644 94.8131 27.7617C94.7697 26.4917 94.6954 25.2092 94.59 23.9206C94.4847 22.6319 94.429 21.3557 94.429 20.0794C94.429 19.2802 94.4723 18.3942 94.5529 17.4092C94.6396 16.4303 94.8688 15.5134 95.2467 14.6584C95.6247 13.8034 96.1884 13.0909 96.9257 12.5086C97.6629 11.9262 98.6851 11.635 99.9985 11.635C100.717 11.635 101.331 11.8333 101.832 12.236C102.34 12.6387 102.749 13.1281 103.065 13.7043C103.381 14.2867 103.623 14.9 103.796 15.5567C103.964 16.2072 104.069 16.8082 104.112 17.3534C105.128 15.9346 106.262 14.7885 107.532 13.8963C108.796 13.0104 110.444 12.5272 112.47 12.4528C113.486 12.4156 114.483 12.4962 115.474 12.7006C116.466 12.8989 117.376 13.2272 118.194 13.6795C119.018 14.1318 119.693 14.7203 120.22 15.4514C120.747 16.1763 121.032 17.0312 121.075 18.0101C121.162 19.1749 120.759 20.0608 119.873 20.6803C118.987 21.2999 117.909 21.6221 116.645 21.6592V21.6716Z" fill="#0082D1"/>
<path d="M148.935 34.3599C148.935 35.0105 148.904 35.8654 148.842 36.9187C148.78 37.9719 148.601 39.0003 148.303 39.9978C148.006 40.9953 147.541 41.8564 146.91 42.5813C146.278 43.3062 145.392 43.6717 144.252 43.6717C142.69 43.6717 141.489 43.238 140.64 42.3645C139.797 41.4909 139.395 40.4067 139.438 39.0995C138.087 40.1155 136.557 40.9147 134.847 41.4971C133.137 42.0795 131.396 42.3706 129.625 42.3706C128.398 42.3706 127.239 42.1166 126.143 41.6086C125.046 41.1006 124.074 40.4439 123.231 39.6509C122.388 38.8516 121.713 37.9533 121.205 36.9558C120.697 35.9584 120.443 34.9671 120.443 33.9882C120.443 32.2473 121.063 30.7232 122.308 29.416C123.553 28.1088 125.083 26.9936 126.899 26.0643C128.714 25.1411 130.647 24.4039 132.691 23.8587C134.736 23.3135 136.563 22.9541 138.168 22.7683C138.168 22.5886 138.18 22.4213 138.199 22.2788C138.217 22.1363 138.23 21.9691 138.23 21.7894C138.23 20.6618 137.871 19.7573 137.152 19.0696C136.433 18.3819 135.423 18.035 134.11 18.035C133.057 18.035 132.146 18.1899 131.39 18.4996C130.628 18.8094 129.91 19.1501 129.24 19.5343C128.565 19.9184 127.89 20.2591 127.215 20.5689C126.539 20.8787 125.777 21.0336 124.935 21.0336C124.005 21.0336 123.212 20.7795 122.562 20.2715C121.905 19.7635 121.583 19.1068 121.583 18.3138C121.583 17.118 121.992 16.0276 122.816 15.0488C123.64 14.0699 124.675 13.2459 125.92 12.5706C127.165 11.9015 128.516 11.3749 129.972 10.9908C131.427 10.6066 132.766 10.4208 133.992 10.4208C135.132 10.4208 136.272 10.5385 137.412 10.7739C138.552 11.0093 139.63 11.3749 140.64 11.8643C141.65 12.3538 142.573 12.9547 143.397 13.661C144.221 14.3673 144.884 15.1975 145.392 16.1392C146.154 17.4836 146.761 18.9085 147.225 20.414C147.69 21.9195 148.049 23.4622 148.303 25.042C148.557 26.6218 148.725 28.2017 148.811 29.7815C148.898 31.3614 148.935 32.8916 148.935 34.3847V34.3599ZM138.806 32.619L138.614 28.9142C138.527 28.9142 138.447 28.908 138.36 28.8894C138.273 28.8708 138.193 28.8646 138.106 28.8646C137.555 28.8646 136.873 28.9823 136.049 29.2177C135.225 29.4532 134.432 29.7815 133.676 30.1966C132.914 30.6117 132.27 31.0764 131.743 31.5844C131.217 32.0924 130.95 32.619 130.95 33.1642C130.95 33.6723 131.161 34.0192 131.582 34.1989C132.004 34.3785 132.487 34.4715 133.038 34.4715C133.967 34.4715 134.959 34.2608 136.012 33.8457C137.065 33.4306 137.994 33.0217 138.8 32.619H138.806Z" fill="#0082D1"/>
<path d="M167.484 44.0001C164.486 44.0001 162.156 43.6655 160.49 42.9902C158.823 42.3211 157.578 41.367 156.754 40.1341C155.93 38.9012 155.434 37.4143 155.267 35.6672C155.1 33.9263 155.013 31.9809 155.013 29.8435C155.013 28.1397 155.075 26.4236 155.205 24.6951C155.329 22.9727 155.521 21.1265 155.775 19.1687C155.186 19.1687 154.722 19.1811 154.381 19.1935C154.04 19.2121 153.768 19.2183 153.557 19.2183C152.206 19.2183 151.036 18.9643 150.044 18.4563C149.053 17.9482 148.557 17.1676 148.557 16.1144C148.557 15.4639 148.842 14.8815 149.412 14.3735C149.982 13.8654 150.707 13.4318 151.599 13.0662C152.485 12.7069 153.445 12.4157 154.48 12.1927C155.515 11.9758 156.494 11.8333 157.423 11.759C157.423 10.7429 157.51 9.61537 157.677 8.38248C157.844 7.14959 158.154 5.99724 158.594 4.92543C159.04 3.85362 159.641 2.95528 160.397 2.23041C161.159 1.50555 162.125 1.14001 163.308 1.14001C163.984 1.14001 164.585 1.31349 165.111 1.65424C165.638 2.00118 166.072 2.43486 166.406 2.96147C166.747 3.48809 166.995 4.07665 167.168 4.73337C167.335 5.38389 167.422 6.02202 167.422 6.64156C167.422 7.36643 167.36 8.10988 167.23 8.87192C167.1 9.63396 166.871 10.5757 166.536 11.7032C167.255 11.6289 167.738 11.5855 167.992 11.5669C168.246 11.5484 168.475 11.5422 168.686 11.5422C169.405 11.5422 170.154 11.5979 170.935 11.7032C171.715 11.8148 172.434 11.9944 173.085 12.2484C173.741 12.5024 174.274 12.837 174.702 13.2583C175.123 13.6734 175.334 14.1752 175.334 14.7576C175.334 15.4081 175.024 15.9905 174.417 16.4985C173.803 17.0065 173.035 17.4402 172.106 17.8057C171.176 18.1713 170.185 18.4501 169.132 18.6483C168.079 18.8466 167.081 18.9829 166.158 19.0572C165.904 20.5441 165.725 21.9133 165.619 23.171C165.514 24.4225 165.396 25.6863 165.272 26.9564C165.186 27.5759 165.111 28.2017 165.049 28.8336C164.987 29.4718 164.956 30.1161 164.956 30.7666C164.956 31.2375 164.975 31.795 165.018 32.427C165.062 33.0651 165.21 33.6723 165.464 34.2484C165.718 34.8308 166.121 35.3264 166.666 35.7477C167.211 36.1628 167.974 36.3735 168.946 36.3735C169.535 36.3735 170.148 36.3301 170.78 36.2372C171.412 36.1442 172.044 36.1009 172.682 36.1009C173.779 36.1009 174.572 36.4292 175.055 37.0798C175.538 37.7303 175.786 38.5667 175.786 39.5827C175.786 40.3447 175.519 41.0077 174.993 41.5714C174.466 42.1352 173.797 42.5875 172.998 42.9344C172.199 43.2814 171.3 43.5416 170.309 43.7213C169.318 43.9009 168.376 43.9939 167.49 43.9939L167.484 44.0001Z" fill="#0082D1"/>
<path d="M203.572 32.3464C203.572 33.5793 203.12 34.7874 202.209 35.9645C201.298 37.1479 200.158 38.1949 198.789 39.1242C197.42 40.0473 195.952 40.797 194.39 41.3546C192.829 41.9184 191.392 42.1972 190.085 42.1972C187.848 42.1972 185.853 41.7139 184.1 40.7536C182.347 39.7933 180.878 38.5666 179.701 37.0797C178.518 35.5928 177.62 33.951 177.013 32.1544C176.399 30.3577 176.096 28.6044 176.096 26.9006C176.096 25.0854 176.393 23.1462 176.982 21.0769C177.57 19.0076 178.469 17.0994 179.67 15.3585C180.872 13.6176 182.39 12.1617 184.23 11.0031C186.064 9.83838 188.251 9.26221 190.785 9.26221C192.222 9.26221 193.591 9.47285 194.898 9.88795C196.206 10.303 197.346 10.8978 198.318 11.6598C199.291 12.4219 200.072 13.3326 200.66 14.3796C201.249 15.4329 201.546 16.61 201.546 17.9172C201.546 19.621 201.125 21.2194 200.282 22.7063C199.44 24.1932 198.318 25.4819 196.924 26.5723C195.53 27.6627 193.926 28.5424 192.111 29.2115C190.295 29.8806 188.437 30.2523 186.541 30.3267C186.708 31.3799 187.204 32.142 188.028 32.6128C188.852 33.0837 189.831 33.3191 190.971 33.3191C191.813 33.3191 192.637 33.1394 193.443 32.7739C194.242 32.4146 195.022 32.0057 195.784 31.5472C196.546 31.0949 197.296 30.686 198.033 30.3205C198.771 29.9612 199.52 29.7753 200.282 29.7753C201.125 29.7753 201.887 30.0107 202.562 30.4816C203.237 30.9524 203.578 31.572 203.578 32.334L203.572 32.3464ZM193.319 19.0014C193.319 18.5306 193.17 18.0411 192.873 17.5331C192.575 17.0251 192.111 16.7711 191.479 16.7711C190.549 16.7711 189.769 16.9817 189.137 17.3968C188.505 17.8119 187.978 18.3385 187.557 18.9767C187.136 19.6148 186.807 20.2901 186.578 21.0211C186.349 21.746 186.206 22.4213 186.169 23.0347C186.758 22.9231 187.464 22.7807 188.288 22.601C189.112 22.4213 189.893 22.1735 190.63 21.8637C191.367 21.554 191.999 21.1636 192.532 20.6928C193.058 20.2219 193.325 19.6582 193.325 19.0076L193.319 19.0014Z" fill="#0082D1"/>
<path d="M227.387 35.0848C227.808 35.7477 228.012 36.4354 228 37.1355C227.988 37.8418 227.808 38.5047 227.473 39.1304C227.133 39.7562 226.687 40.3262 226.135 40.8528C225.578 41.3794 224.946 41.8069 224.233 42.1476C223.341 42.5689 222.282 42.8787 221.067 43.0893C219.847 43.3 218.645 43.3495 217.456 43.2442C216.266 43.1389 215.157 42.8787 214.123 42.4698C213.088 42.0609 212.295 41.4227 211.744 40.5492C210.864 39.1676 210.889 37.8108 211.818 36.4788C212.747 35.1468 213.924 34.1431 215.349 33.474C216.241 33.0527 217.257 32.7429 218.403 32.5385C219.55 32.334 220.702 32.2721 221.879 32.3526C223.05 32.4332 224.122 32.6934 225.094 33.1332C226.067 33.5731 226.835 34.2298 227.387 35.0972V35.0848Z" fill="#0082D1"/>
<path d="M214.29 30.2337C213.571 29.7939 213.038 29.2549 212.698 28.6167C212.351 27.9786 212.171 27.3095 212.159 26.628C212.146 25.9403 212.258 25.2588 212.481 24.5773C212.71 23.8958 213.063 23.2701 213.534 22.7001C214.123 21.9876 214.916 21.3061 215.901 20.6618C216.892 20.0175 217.951 19.5156 219.066 19.1687C220.188 18.8156 221.315 18.6297 222.455 18.6111C223.595 18.5925 224.63 18.8713 225.572 19.4413C227.065 20.352 227.727 21.5849 227.573 23.1338C227.418 24.6826 226.866 26.027 225.925 27.167C225.336 27.8795 224.58 28.5424 223.657 29.1557C222.734 29.7691 221.724 30.2647 220.628 30.6302C219.531 30.9958 218.441 31.1693 217.338 31.1383C216.235 31.1073 215.219 30.8099 214.284 30.2337H214.29Z" fill="#001A42"/>
<path d="M220.12 17.7375C219.246 17.8367 218.428 17.7561 217.672 17.4959C216.91 17.2295 216.254 16.8516 215.696 16.3559C215.139 15.8603 214.674 15.2965 214.302 14.6646C213.931 14.0327 213.689 13.3697 213.577 12.6759C213.441 11.8085 213.478 10.8482 213.689 9.79498C213.9 8.74175 214.271 7.75668 214.816 6.83975C215.355 5.92283 216.031 5.12362 216.849 4.44212C217.66 3.76062 218.639 3.35172 219.785 3.22162C221.6 3.01097 223.062 3.519 224.178 4.7395C225.293 5.96 225.962 7.26724 226.179 8.65502C226.315 9.52238 226.29 10.4517 226.104 11.443C225.918 12.4342 225.572 13.3883 225.064 14.2991C224.555 15.2098 223.893 15.978 223.069 16.6038C222.245 17.2295 221.26 17.6074 220.12 17.7375Z" fill="#0082D1"/>
</g>
<defs>
<clipPath id="clip0_60_169">
<rect width="228" height="44" fill="white"/>
</clipPath>
</defs>
</svg>
